<svg xmlns="http://www.w3.org/2000/svg" version="1.1" viewBox="0 0 300 300">
  <path fill="#333" d="M0 .1h300v299.8H0Z" display="inline" opacity="1"/>
  <path fill="#ffd700" fill-opacity="1" d="M0 0v300h127.63c-27.23-78.32-25.51-117.17-22.56-137.84 0 0 1.38-6.17 2.4-9.03.27-.8.6-1.56.91-2.32.18-.58.36-1.17.5-1.76 2.37-9.95-12.27-21.48-18.93-28.11 7 9.02 17.08 16.82 14.28 29.7-31.7-6.99-42.97-30.8-36.54-53.85 1.68-6.03 5.38-12.1 10.1-15.59-2.86 8.53 5.25 14.62 11.93 20 5.68 4.55 11.18 8.76 15.64 13.43 6.98 7.34 10.4 15.34 9.42 24.7 6.17-8.44 14.84-15.22 25.79-20.8 10.7-5.42 22.77-9.54 35.42-14.18 14.85-5.47 32.6-11.38 34.13-26.76 5.17 8.05 6.8 19.84 5.15 30.58h-.01c-6.29 40.92-42.15 74.3-99.17 69.9 4.83-22.47 27.04-30.22 45.08-41.5-15.75 7.55-48.13 19.1-51.52 36.59-3.48 17.9 6.18 70.5 56.6 126.84H300V0Z" display="inline" opacity="1"/>
</svg>
