<svg xmlns="http://www.w3.org/2000/svg" version="1.1" viewBox="0 0 300 300">
  <path fill="#ffd700" fill-opacity="1" d="M150 0A150 150.61 0 0 0 0 150.61a150 150.61 0 0 0 127.82 148.9c-27.44-78.64-25.71-117.59-22.75-138.3 0 0 1.38-6.17 2.4-9.03.27-.78.6-1.56.91-2.32.18-.57.36-1.16.5-1.75 2.37-9.95-12.27-21.46-18.93-28.1 7 9.02 17.08 16.82 14.28 29.69-31.7-6.99-42.97-30.79-36.54-53.82 1.68-6.02 5.38-12.09 10.1-15.57-2.86 8.51 5.25 14.6 11.93 19.98 5.68 4.55 11.18 8.75 15.64 13.42 6.98 7.33 10.4 15.33 9.42 24.68 6.17-8.42 14.84-15.2 25.79-20.77 10.7-5.42 22.77-9.54 35.42-14.19 14.85-5.45 32.6-11.37 34.13-26.74 5.17 8.05 6.8 19.83 5.15 30.57h-.01c-6.29 40.9-42.15 74.25-99.17 69.85 4.83-22.45 27.04-30.2 45.08-41.47-15.75 7.54-48.13 19.08-51.52 36.56-3.5 18 6.26 71.1 57.5 127.8A150 150.61 0 0 0 300 150.61 150 150.61 0 0 0 150 0Z" display="inline"/>
  <path fill="#333" d="M210.12 76.7c-1.53 15.36-19.28 21.28-34.13 26.73-12.65 4.65-24.72 8.77-35.42 14.19-10.95 5.56-19.62 12.35-25.8 20.77.99-9.35-2.43-17.35-9.41-24.68-4.46-4.67-9.96-8.87-15.64-13.42-6.68-5.37-14.8-11.47-11.93-19.98-4.72 3.48-8.42 9.55-10.1 15.57-6.43 23.03 4.84 46.83 36.54 53.82 2.8-12.87-7.28-20.67-14.28-29.7 6.66 6.64 21.3 18.16 18.93 28.11a25 25 0 0 1-.5 1.75c-.3.76-.64 1.54-.9 2.32-1.03 2.86-2.41 9.03-2.41 9.03-2.94 20.59-4.64 59.25 22.3 136.99A150 150 0 0 0 150 300a150 150 0 0 0 16.13-1.15c-50.33-56.26-59.96-108.77-56.48-126.65 3.39-17.48 35.77-29.02 51.52-36.56-18.04 11.27-40.25 19.02-45.08 41.47 57.02 4.4 92.88-28.95 99.17-69.85h.01c1.65-10.74.02-22.52-5.15-30.57z" opacity="1"/>
</svg>
