<svg xmlns="http://www.w3.org/2000/svg" viewBox="0 0 300 300">
  <path fill="#4a0" d="M243.48 48.27c-7.9 51.23-53 93-124.69 87.48 6.07-28.12 34-37.82 56.68-51.94-19.8 9.46-60.52 23.9-64.78 45.8-4.4 22.58 7.91 89.27 72.63 160.39h-49.47c-34.86-99.15-32.66-148.14-28.93-174.16 0 0 1.73-7.73 3-11.3.36-1 .76-1.96 1.16-2.92.23-.72.45-1.44.63-2.19 2.99-12.46-15.42-26.87-23.8-35.19 8.81 11.3 21.48 21.07 17.96 37.18C64 92.67 49.83 62.88 57.92 34.04c2.12-7.56 6.77-15.15 12.7-19.51-3.6 10.66 6.6 18.29 15 25 7.14 5.72 14.06 10.98 19.66 16.82 8.78 9.18 13.08 19.21 11.85 30.92 7.76-10.55 18.66-19.06 32.42-26.01C163 54.47 178.2 49.3 194.1 43.49 212.77 36.66 235.07 29.25 237 10c6.51 10.09 8.57 24.83 6.48 38.27z"/>
</svg>
