<svg xmlns="http://www.w3.org/2000/svg" viewBox="0 0 300 300">
  <circle cx="150" cy="150" r="150" fill="#8dd35f" opacity=".49"/>
  <path fill="#d40055" d="M205.05 97.75c-6.29 40.75-42.15 73.96-99.17 69.58 4.83-22.37 27.04-30.09 45.08-41.32-15.75 7.53-48.13 19-51.52 36.42-3.5 17.97 6.3 71.01 57.76 127.57h-39.34c-27.73-78.85-25.98-117.82-23.01-138.51 0 0 1.38-6.15 2.39-8.99.28-.79.6-1.55.92-2.32.19-.57.36-1.14.5-1.74 2.38-9.91-12.26-21.37-18.92-27.99 7 8.99 17.08 16.75 14.27 29.57-31.69-6.96-42.97-30.65-36.54-53.59 1.69-6.01 5.39-12.05 10.1-15.52-2.86 8.49 5.25 14.55 11.93 19.9 5.68 4.54 11.18 8.72 15.64 13.37 6.98 7.3 10.4 15.28 9.42 24.58 6.17-8.38 14.84-15.15 25.79-20.68 10.7-5.4 22.77-9.51 35.42-14.13 14.86-5.43 32.6-11.32 34.13-26.64 5.18 8.02 6.81 19.75 5.15 30.44z"/>
</svg>
